<?xml version="1.0" encoding="iso-8859-1"?>
<!-- Generator: Adobe Illustrator 16.0.0, SVG Export Plug-In . SVG Version: 6.00 Build 0)  -->
<!DOCTYPE svg PUBLIC "-//W3C//DTD SVG 1.1//EN" "http://www.w3.org/Graphics/SVG/1.1/DTD/svg11.dtd">
<svg version="1.1" id="Capa_1" xmlns="http://www.w3.org/2000/svg" xmlns:xlink="http://www.w3.org/1999/xlink" x="0px" y="0px"
	 width="373.022px" height="373.022px" viewBox="0 0 373.022 373.022" style="enable-background:new 0 0 373.022 373.022;"
	 xml:space="preserve">
<g>
	<path d="M303.869,153.688H127.097c-0.177-0.315-0.288-0.639-0.483-0.952l-12.286-19.618l0,0
		c-18.398-29.384-9.476-68.256,19.903-86.679c14.228-8.911,31.09-11.781,47.459-8.001c16.362,3.744,30.288,13.658,39.199,27.875
		c0,0.012,0.023,0.018,0.023,0.023l21.899,34.945c3.489,5.563,9.477,8.62,15.595,8.62c3.345,0,6.731-0.904,9.758-2.811
		c8.611-5.393,11.211-16.75,5.825-25.364l-21.906-34.945c-0.023-0.024-0.035-0.048-0.06-0.078
		c-14.136-22.512-36.185-38.197-62.113-44.15c-25.95-5.939-52.659-1.444-75.229,12.703c-46.57,29.177-60.721,90.819-31.537,137.393
		c0,0,0,0,0,0.006l0.646,1.027H69.162c-10.169,0-18.396,8.239-18.396,18.396v182.551c0,10.16,8.227,18.394,18.396,18.394h234.694
		c10.148,0,18.399-8.233,18.399-18.394V172.084C322.268,161.921,314.017,153.688,303.869,153.688z"/>
</g>
<g>
</g>
<g>
</g>
<g>
</g>
<g>
</g>
<g>
</g>
<g>
</g>
<g>
</g>
<g>
</g>
<g>
</g>
<g>
</g>
<g>
</g>
<g>
</g>
<g>
</g>
<g>
</g>
<g>
</g>
</svg>
